<mxfile host="Electron" agent="Mozilla/5.0 (Macintosh; Intel Mac OS X 10_15_7) AppleWebKit/537.36 (KHTML, like Gecko) draw.io/28.2.5 Chrome/138.0.7204.251 Electron/37.6.1 Safari/537.36" version="28.2.5">
  <diagram name="Page-1" id="L-5fbbQSWwJBGnzplbtP">
    <mxGraphModel dx="1035" dy="732" grid="1" gridSize="10" guides="1" tooltips="1" connect="1" arrows="1" fold="1" page="1" pageScale="1" pageWidth="850" pageHeight="1100" math="0" shadow="0">
      <root>
        <mxCell id="0" />
        <mxCell id="1" parent="0" />
        <object label="" id="zzpMK-tOcANn6SZQlCMh-1">
          <mxCell style="verticalLabelPosition=bottom;verticalAlign=top;html=1;shape=mxgraph.basic.rect;fillColor2=none;strokeWidth=1;size=20;indent=5;fillOpacity=100;fillColor=#1ba1e2;fontColor=#ffffff;strokeColor=#006EAF;" vertex="1" parent="1">
            <mxGeometry x="417" y="885" width="160" height="375" as="geometry" />
          </mxCell>
        </object>
        <object label="" id="zzpMK-tOcANn6SZQlCMh-2">
          <mxCell style="verticalLabelPosition=bottom;verticalAlign=top;html=1;shape=mxgraph.basic.rect;fillColor2=none;strokeWidth=1;size=20;indent=5;fillOpacity=100;fillColor=#1ba1e2;fontColor=#ffffff;strokeColor=#006EAF;" vertex="1" parent="1">
            <mxGeometry x="225.5" y="885" width="160" height="375" as="geometry" />
          </mxCell>
        </object>
        <object label="" id="zzpMK-tOcANn6SZQlCMh-3">
          <mxCell style="verticalLabelPosition=bottom;verticalAlign=top;html=1;shape=mxgraph.basic.rect;fillColor2=none;strokeWidth=1;size=20;indent=5;fillColor=#1ba1e2;strokeColor=#006EAF;fontColor=#ffffff;" vertex="1" parent="1">
            <mxGeometry x="225.5" y="470" width="160" height="375" as="geometry" />
          </mxCell>
        </object>
        <mxCell id="zzpMK-tOcANn6SZQlCMh-4" value="" style="endArrow=none;dashed=1;html=1;rounded=0;strokeWidth=2;" edge="1" parent="1">
          <mxGeometry width="50" height="50" relative="1" as="geometry">
            <mxPoint x="585.5" y="1270" as="sourcePoint" />
            <mxPoint x="590.5" y="460" as="targetPoint" />
          </mxGeometry>
        </mxCell>
        <mxCell id="zzpMK-tOcANn6SZQlCMh-5" value="&lt;h3 style=&quot;margin-top: 0px;&quot;&gt;&lt;span style=&quot;font-size: 14px;&quot;&gt;Build an analytics API&lt;/span&gt;&lt;/h3&gt;" style="text;html=1;whiteSpace=wrap;overflow=hidden;rounded=0;" vertex="1" parent="1">
          <mxGeometry x="225.5" y="405" width="160" height="50" as="geometry" />
        </mxCell>
        <mxCell id="zzpMK-tOcANn6SZQlCMh-6" value="&lt;font&gt;&lt;b&gt;Deliverables&lt;/b&gt;&lt;/font&gt;" style="text;html=1;align=center;verticalAlign=middle;whiteSpace=wrap;rounded=0;rotation=-90;fontSize=20;" vertex="1" parent="1">
          <mxGeometry x="165.5" y="615" width="60" height="30" as="geometry" />
        </mxCell>
        <mxCell id="zzpMK-tOcANn6SZQlCMh-7" value="&lt;h3 style=&quot;margin-top: 0px;&quot;&gt;&lt;ul&gt;&lt;li&gt;&lt;span style=&quot;font-size: 12px; font-weight: 400;&quot;&gt;Possibility of creating analytics based on the identified customer&#39;s behaviour on the front-end.&lt;/span&gt;&lt;/li&gt;&lt;li&gt;&lt;span style=&quot;font-size: 12px; font-weight: 400;&quot;&gt;Possibility analyzing experimental app feature versions.&lt;/span&gt;&lt;/li&gt;&lt;/ul&gt;&lt;/h3&gt;" style="text;html=1;whiteSpace=wrap;overflow=hidden;rounded=0;spacingLeft=-25;" vertex="1" parent="1">
          <mxGeometry x="225.5" y="895" width="160" height="362.5" as="geometry" />
        </mxCell>
        <mxCell id="zzpMK-tOcANn6SZQlCMh-8" value="&lt;font&gt;&lt;b&gt;Value capture&lt;/b&gt;&lt;/font&gt;" style="text;html=1;align=center;verticalAlign=middle;whiteSpace=wrap;rounded=0;rotation=-90;fontSize=20;" vertex="1" parent="1">
          <mxGeometry x="143" y="1045" width="105" height="30" as="geometry" />
        </mxCell>
        <object label="" id="zzpMK-tOcANn6SZQlCMh-9">
          <mxCell style="verticalLabelPosition=bottom;verticalAlign=top;html=1;shape=mxgraph.basic.rect;fillColor2=none;strokeWidth=1;size=20;indent=5;fillColor=#1ba1e2;fontColor=#ffffff;strokeColor=#006EAF;" vertex="1" parent="1">
            <mxGeometry x="417" y="469" width="160" height="376" as="geometry" />
          </mxCell>
        </object>
        <mxCell id="zzpMK-tOcANn6SZQlCMh-10" value="&lt;h3 style=&quot;margin-top: 0px;&quot;&gt;&lt;font style=&quot;font-size: 14px;&quot;&gt;Introduce and utilize customer segmentation on the front-end&lt;/font&gt;&lt;/h3&gt;" style="text;html=1;whiteSpace=wrap;overflow=hidden;rounded=0;" vertex="1" parent="1">
          <mxGeometry x="415" y="400" width="164" height="60" as="geometry" />
        </mxCell>
        <mxCell id="zzpMK-tOcANn6SZQlCMh-11" value="&lt;h3 style=&quot;margin-top: 0px;&quot;&gt;&lt;p style=&quot;font-size: 12px; font-weight: 400;&quot;&gt;&lt;/p&gt;&lt;ul&gt;&lt;li&gt;&lt;span style=&quot;font-size: 12px; font-weight: 400;&quot;&gt;Define an analytics data model to include attributes necessary to track customer behaviour and create relevant analytics.&lt;br&gt;&lt;/span&gt;&lt;/li&gt;&lt;li&gt;&lt;span style=&quot;font-size: 12px; font-weight: 400;&quot;&gt;Design and implement an asynchronous pattern of probing (collecting and publishing) data from different sources on the front-end and midl-layer.&lt;/span&gt;&lt;/li&gt;&lt;li&gt;&lt;span style=&quot;font-size: 12px; font-weight: 400;&quot;&gt;Define the necessary data joins, transformation and staging area.&lt;/span&gt;&lt;/li&gt;&lt;li&gt;&lt;span style=&quot;font-size: 12px; font-weight: 400;&quot;&gt;Define a storage strategy for the data to persist the data in E.ON&#39;s analytic platform (Snowflake).&lt;/span&gt;&lt;/li&gt;&lt;/ul&gt;&lt;p&gt;&lt;/p&gt;&lt;/h3&gt;" style="text;html=1;whiteSpace=wrap;overflow=hidden;rounded=0;spacingLeft=-25;" vertex="1" parent="1">
          <mxGeometry x="225.5" y="485" width="158" height="350" as="geometry" />
        </mxCell>
        <mxCell id="zzpMK-tOcANn6SZQlCMh-12" value="" style="endArrow=none;dashed=1;html=1;rounded=0;strokeWidth=2;" edge="1" parent="1">
          <mxGeometry width="50" height="50" relative="1" as="geometry">
            <mxPoint x="395.5" y="1265" as="sourcePoint" />
            <mxPoint x="395.5" y="460" as="targetPoint" />
          </mxGeometry>
        </mxCell>
        <mxCell id="zzpMK-tOcANn6SZQlCMh-13" value="&lt;h3 style=&quot;margin-top: 0px;&quot;&gt;&lt;p style=&quot;font-size: 12px; font-weight: 400;&quot;&gt;&lt;/p&gt;&lt;ul&gt;&lt;li&gt;&lt;span style=&quot;font-size: 12px; font-weight: 400;&quot;&gt;Define segmentation attributes and rules in the business rules engine.&lt;/span&gt;&lt;/li&gt;&lt;li&gt;&lt;span style=&quot;font-size: 12px; font-weight: 400;&quot;&gt;Implement a mechanism to apply segmentation rules to the analytical data and calculate customer segmentation attributes for every customer in logged-in mode.&lt;/span&gt;&lt;/li&gt;&lt;li&gt;&lt;span style=&quot;font-size: 12px; font-weight: 400;&quot;&gt;Adapt the UI to be able to consume segmentation data an present a personalized experience to the customer.&lt;/span&gt;&lt;/li&gt;&lt;/ul&gt;&lt;p&gt;&lt;/p&gt;&lt;/h3&gt;" style="text;html=1;whiteSpace=wrap;overflow=hidden;rounded=0;spacing=2;spacingLeft=-25;" vertex="1" parent="1">
          <mxGeometry x="417" y="481" width="160" height="354" as="geometry" />
        </mxCell>
        <mxCell id="zzpMK-tOcANn6SZQlCMh-14" value="&lt;h3 style=&quot;margin-top: 0px;&quot;&gt;&lt;p style=&quot;font-size: 12px; font-weight: 400;&quot;&gt;&lt;/p&gt;&lt;ul&gt;&lt;li&gt;&lt;span style=&quot;font-size: 12px; font-weight: 400;&quot;&gt;Being able to shape the customer experience based on historical customer data, earlier&amp;nbsp; behaviour data and their segmentation.&lt;/span&gt;&lt;/li&gt;&lt;li&gt;&lt;span style=&quot;font-size: 12px; font-weight: 400;&quot;&gt;Possibility for the business to change the definition and attributes of customer segmentation in the rules engine.&lt;/span&gt;&lt;/li&gt;&lt;/ul&gt;&lt;p&gt;&lt;/p&gt;&lt;/h3&gt;" style="text;html=1;whiteSpace=wrap;overflow=hidden;rounded=0;spacing=2;spacingLeft=-25;" vertex="1" parent="1">
          <mxGeometry x="415" y="895" width="160.5" height="362.5" as="geometry" />
        </mxCell>
        <mxCell id="zzpMK-tOcANn6SZQlCMh-15" value="" style="shape=flexArrow;endArrow=classic;html=1;rounded=0;fillColor=#7D7D7D;" edge="1" parent="1">
          <mxGeometry width="50" height="50" relative="1" as="geometry">
            <mxPoint x="225.5" y="1297.5" as="sourcePoint" />
            <mxPoint x="700.5" y="1297.5" as="targetPoint" />
          </mxGeometry>
        </mxCell>
        <mxCell id="zzpMK-tOcANn6SZQlCMh-16" value="Investment in capabilities" style="edgeLabel;html=1;align=center;verticalAlign=middle;resizable=0;points=[];fontSize=15;fontStyle=1" vertex="1" connectable="0" parent="zzpMK-tOcANn6SZQlCMh-15">
          <mxGeometry x="-0.0753" y="-4" relative="1" as="geometry">
            <mxPoint x="-125" y="-24" as="offset" />
          </mxGeometry>
        </mxCell>
        <mxCell id="zzpMK-tOcANn6SZQlCMh-17" value="" style="shape=flexArrow;endArrow=classic;html=1;rounded=0;fillColor=#7D7D7D;" edge="1" parent="1">
          <mxGeometry width="50" height="50" relative="1" as="geometry">
            <mxPoint x="225.5" y="1397.5" as="sourcePoint" />
            <mxPoint x="707" y="1397.5" as="targetPoint" />
          </mxGeometry>
        </mxCell>
        <mxCell id="zzpMK-tOcANn6SZQlCMh-18" value="Shape the customer experience" style="edgeLabel;html=1;align=center;verticalAlign=middle;resizable=0;points=[];fontSize=15;fontStyle=1" vertex="1" connectable="0" parent="zzpMK-tOcANn6SZQlCMh-17">
          <mxGeometry x="-0.0753" y="-4" relative="1" as="geometry">
            <mxPoint x="-107" y="-24" as="offset" />
          </mxGeometry>
        </mxCell>
        <mxCell id="zzpMK-tOcANn6SZQlCMh-19" value="" style="shape=flexArrow;endArrow=classic;html=1;rounded=0;fillColor=#7D7D7D;" edge="1" parent="1">
          <mxGeometry width="50" height="50" relative="1" as="geometry">
            <mxPoint x="225.5" y="1347.5" as="sourcePoint" />
            <mxPoint x="706" y="1347.5" as="targetPoint" />
          </mxGeometry>
        </mxCell>
        <mxCell id="zzpMK-tOcANn6SZQlCMh-20" value="Increased customer insight" style="edgeLabel;html=1;align=center;verticalAlign=middle;resizable=0;points=[];fontSize=15;fontStyle=1" vertex="1" connectable="0" parent="zzpMK-tOcANn6SZQlCMh-19">
          <mxGeometry x="-0.0753" y="-4" relative="1" as="geometry">
            <mxPoint x="-117" y="-24" as="offset" />
          </mxGeometry>
        </mxCell>
      </root>
    </mxGraphModel>
  </diagram>
</mxfile>
